<svg width="1379" height="186" viewBox="0 0 1379 186" fill="none" xmlns="http://www.w3.org/2000/svg">
<path d="M159.739 183H0.051471V3.18382H159.739V48.5404H50.5074V70.011H155.713V115.099H50.5074V137.643H159.739V183ZM224.537 183H174.081V3.18382H273.651C316.323 3.18382 343.162 27.6066 343.162 70.2794C343.162 112.952 316.323 137.643 273.651 137.643H224.537V183ZM268.014 48.5404H224.537V92.2868H268.014C285.728 92.2868 292.974 88.7978 292.974 70.2794C292.974 52.0294 285.728 48.5404 268.014 48.5404ZM404.332 183H353.876V3.18382H404.332V183ZM507.672 185.684C452.653 185.684 419.105 166.092 419.105 120.467V118.857H469.561V124.493C469.561 136.57 473.855 139.79 507.672 139.79C538.267 139.79 541.488 137.375 541.488 129.324C541.488 122.882 537.999 120.199 523.238 118.32L466.877 110.805C433.33 106.243 416.422 88.261 416.422 59.2757C416.422 30.5588 438.697 0.499997 503.646 0.499997C560.811 0.499997 588.186 25.4596 588.186 65.7169V67.3272H537.73V63.3015C537.73 50.4191 532.094 46.125 498.278 46.125C472.513 46.125 466.877 49.614 466.877 57.3971C466.877 63.0331 470.098 65.7169 479.76 67.0588L536.12 75.3787C580.135 81.8199 591.944 104.364 591.944 127.445C591.944 158.309 568.326 185.684 507.672 185.684ZM713.949 183H663.493V48.5404H599.886V3.18382H777.287V48.5404H713.949V183ZM949.16 183H789.473V3.18382H949.16V48.5404H839.929V70.011H945.135V115.099H839.929V137.643H949.16V183ZM1013.96 183H963.502V3.18382H1031.94L1064.95 77.7941L1082.66 124.224H1086.15L1103.06 77.7941L1134.46 3.18382H1202.9V183H1152.44V108.658L1154.32 78.5993H1150.83L1140.63 108.658L1113.8 172.265H1052.61L1025.77 108.658L1015.57 78.5993H1012.08L1013.96 108.658V183ZM1378.73 183H1219.04V3.18382H1378.73V48.5404H1269.5V70.011H1374.7V115.099H1269.5V137.643H1378.73V183Z" fill="#956FA4"/>
</svg>
