<svg width="186" height="207" viewBox="0 0 186 207" fill="none" xmlns="http://www.w3.org/2000/svg">
<path d="M184.687 46.44C184.687 58.6387 174.77 69.9714 158.076 78.3183C141.446 86.6332 118.398 91.807 92.8799 91.807C67.3623 91.807 44.3134 86.6332 27.6837 78.3183C10.9898 69.9714 1.07292 58.6387 1.07292 46.44C1.07292 34.2412 10.9898 22.9085 27.6837 14.5616C44.3134 6.24673 67.3623 1.07292 92.8799 1.07292C118.398 1.07292 141.446 6.24673 158.076 14.5616C174.77 22.9085 184.687 34.2412 184.687 46.44Z" stroke="url(#paint0_linear_91_249)" stroke-width="2.14583"/>
<path d="M184.687 54.5557C184.687 66.7544 174.77 78.0871 158.076 86.434C141.446 94.7489 118.398 99.9227 92.8799 99.9227C67.3623 99.9227 44.3134 94.7489 27.6837 86.434C10.9898 78.0871 1.07292 66.7544 1.07292 54.5557C1.07292 42.357 10.9898 31.0243 27.6837 22.6773C44.3134 14.3625 67.3623 9.18864 92.8799 9.18864C118.398 9.18864 141.446 14.3625 158.076 22.6773C174.77 31.0243 184.687 42.357 184.687 54.5557Z" stroke="url(#paint1_linear_91_249)" stroke-width="2.14583"/>
<path d="M184.687 62.6714C184.687 74.8701 174.77 86.2028 158.076 94.5498C141.446 102.865 118.398 108.038 92.8799 108.038C67.3623 108.038 44.3134 102.865 27.6837 94.5498C10.9898 86.2028 1.07292 74.8701 1.07292 62.6714C1.07292 50.4727 10.9898 39.14 27.6837 30.793C44.3134 22.4782 67.3623 17.3044 92.8799 17.3044C118.398 17.3044 141.446 22.4782 158.076 30.793C174.77 39.14 184.687 50.4727 184.687 62.6714Z" stroke="url(#paint2_linear_91_249)" stroke-width="2.14583"/>
<path d="M184.687 70.7871C184.687 82.9858 174.77 94.3185 158.076 102.665C141.446 110.98 118.398 116.154 92.8799 116.154C67.3623 116.154 44.3134 110.98 27.6837 102.665C10.9898 94.3185 1.07292 82.9858 1.07292 70.7871C1.07292 58.5884 10.9898 47.2557 27.6837 38.9088C44.3134 30.5939 67.3623 25.4201 92.8799 25.4201C118.398 25.4201 141.446 30.5939 158.076 38.9088C174.77 47.2557 184.687 58.5884 184.687 70.7871Z" stroke="url(#paint3_linear_91_249)" stroke-width="2.14583"/>
<path d="M184.687 78.9028C184.687 91.1016 174.77 102.434 158.076 110.781C141.446 119.096 118.398 124.27 92.8799 124.27C67.3623 124.27 44.3134 119.096 27.6837 110.781C10.9898 102.434 1.07292 91.1016 1.07292 78.9028C1.07292 66.7041 10.9898 55.3714 27.6837 47.0245C44.3134 38.7096 67.3623 33.5358 92.8799 33.5358C118.398 33.5358 141.446 38.7096 158.076 47.0245C174.77 55.3714 184.687 66.7041 184.687 78.9028Z" stroke="url(#paint4_linear_91_249)" stroke-width="2.14583"/>
<path d="M184.687 87.0186C184.687 99.2173 174.77 110.55 158.076 118.897C141.446 127.212 118.398 132.386 92.8799 132.386C67.3623 132.386 44.3134 127.212 27.6837 118.897C10.9898 110.55 1.07292 99.2173 1.07292 87.0186C1.07292 74.8199 10.9898 63.4872 27.6837 55.1402C44.3134 46.8253 67.3623 41.6515 92.8799 41.6515C118.398 41.6515 141.446 46.8253 158.076 55.1402C174.77 63.4872 184.687 74.8199 184.687 87.0186Z" stroke="url(#paint5_linear_91_249)" stroke-width="2.14583"/>
<path d="M184.687 95.1343C184.687 107.333 174.77 118.666 158.076 127.013C141.446 135.328 118.398 140.501 92.8799 140.501C67.3623 140.501 44.3134 135.328 27.6837 127.013C10.9898 118.666 1.07292 107.333 1.07292 95.1343C1.07292 82.9356 10.9898 71.6029 27.6837 63.2559C44.3134 54.9411 67.3623 49.7673 92.8799 49.7673C118.398 49.7673 141.446 54.9411 158.076 63.2559C174.77 71.6029 184.687 82.9356 184.687 95.1343Z" stroke="url(#paint6_linear_91_249)" stroke-width="2.14583"/>
<path d="M184.687 103.25C184.687 115.449 174.77 126.781 158.076 135.128C141.446 143.443 118.398 148.617 92.8799 148.617C67.3623 148.617 44.3134 143.443 27.6837 135.128C10.9898 126.781 1.07292 115.449 1.07292 103.25C1.07292 91.0513 10.9898 79.7186 27.6837 71.3717C44.3134 63.0568 67.3623 57.883 92.8799 57.883C118.398 57.883 141.446 63.0568 158.076 71.3717C174.77 79.7186 184.687 91.0513 184.687 103.25Z" stroke="url(#paint7_linear_91_249)" stroke-width="2.14583"/>
<path d="M184.687 111.366C184.687 123.564 174.77 134.897 158.076 143.244C141.446 151.559 118.398 156.733 92.8799 156.733C67.3623 156.733 44.3134 151.559 27.6837 143.244C10.9898 134.897 1.07292 123.564 1.07292 111.366C1.07292 99.167 10.9898 87.8343 27.6837 79.4874C44.3134 71.1725 67.3623 65.9987 92.8799 65.9987C118.398 65.9987 141.446 71.1725 158.076 79.4874C174.77 87.8343 184.687 99.167 184.687 111.366Z" stroke="url(#paint8_linear_91_249)" stroke-width="2.14583"/>
<path d="M184.687 119.481C184.687 131.68 174.77 143.013 158.076 151.36C141.446 159.675 118.398 164.848 92.8799 164.848C67.3623 164.848 44.3134 159.675 27.6837 151.36C10.9898 143.013 1.07292 131.68 1.07292 119.481C1.07292 107.283 10.9898 95.95 27.6837 87.6031C44.3134 79.2882 67.3623 74.1144 92.8799 74.1144C118.398 74.1144 141.446 79.2882 158.076 87.6031C174.77 95.95 184.687 107.283 184.687 119.481Z" stroke="url(#paint9_linear_91_249)" stroke-width="2.14583"/>
<path d="M184.687 127.597C184.687 139.796 174.77 151.129 158.076 159.476C141.446 167.79 118.398 172.964 92.8799 172.964C67.3623 172.964 44.3134 167.79 27.6837 159.476C10.9898 151.129 1.07292 139.796 1.07292 127.597C1.07292 115.398 10.9898 104.066 27.6837 95.7188C44.3134 87.4039 67.3623 82.2301 92.8799 82.2301C118.398 82.2301 141.446 87.4039 158.076 95.7188C174.77 104.066 184.687 115.398 184.687 127.597Z" stroke="url(#paint10_linear_91_249)" stroke-width="2.14583"/>
<path d="M184.687 135.713C184.687 147.912 174.77 159.244 158.076 167.591C141.446 175.906 118.398 181.08 92.8799 181.08C67.3623 181.08 44.3134 175.906 27.6837 167.591C10.9898 159.244 1.07292 147.912 1.07292 135.713C1.07292 123.514 10.9898 112.181 27.6837 103.835C44.3134 95.5196 67.3623 90.3458 92.8799 90.3458C118.398 90.3458 141.446 95.5196 158.076 103.835C174.77 112.181 184.687 123.514 184.687 135.713Z" stroke="url(#paint11_linear_91_249)" stroke-width="2.14583"/>
<path d="M184.687 143.829C184.687 156.027 174.77 167.36 158.076 175.707C141.446 184.022 118.398 189.196 92.8799 189.196C67.3623 189.196 44.3134 184.022 27.6837 175.707C10.9898 167.36 1.07292 156.027 1.07292 143.829C1.07292 131.63 10.9898 120.297 27.6837 111.95C44.3134 103.635 67.3623 98.4616 92.8799 98.4616C118.398 98.4616 141.446 103.635 158.076 111.95C174.77 120.297 184.687 131.63 184.687 143.829Z" stroke="url(#paint12_linear_91_249)" stroke-width="2.14583"/>
<path d="M184.687 151.944C184.687 164.143 174.77 175.476 158.076 183.823C141.446 192.138 118.398 197.311 92.8799 197.311C67.3623 197.311 44.3134 192.138 27.6837 183.823C10.9898 175.476 1.07292 164.143 1.07292 151.944C1.07292 139.746 10.9898 128.413 27.6837 120.066C44.3134 111.751 67.3623 106.577 92.8799 106.577C118.398 106.577 141.446 111.751 158.076 120.066C174.77 128.413 184.687 139.746 184.687 151.944Z" stroke="url(#paint13_linear_91_249)" stroke-width="2.14583"/>
<path d="M184.687 160.06C184.687 172.259 174.77 183.591 158.076 191.938C141.446 200.253 118.398 205.427 92.8799 205.427C67.3623 205.427 44.3134 200.253 27.6837 191.938C10.9898 183.591 1.07292 172.259 1.07292 160.06C1.07292 147.861 10.9898 136.529 27.6837 128.182C44.3134 119.867 67.3623 114.693 92.8799 114.693C118.398 114.693 141.446 119.867 158.076 128.182C174.77 136.529 184.687 147.861 184.687 160.06Z" stroke="url(#paint14_linear_91_249)" stroke-width="2.14583"/>
<defs>
<linearGradient id="paint0_linear_91_249" x1="92.8799" y1="0" x2="92.8799" y2="92.8799" gradientUnits="userSpaceOnUse">
<stop stop-color="#956FA4"/>
<stop offset="1" stop-color="#3A2D40"/>
</linearGradient>
<linearGradient id="paint1_linear_91_249" x1="92.8799" y1="8.11572" x2="92.8799" y2="100.996" gradientUnits="userSpaceOnUse">
<stop stop-color="#956FA4"/>
<stop offset="1" stop-color="#3A2D40"/>
</linearGradient>
<linearGradient id="paint2_linear_91_249" x1="92.8799" y1="16.2314" x2="92.8799" y2="109.111" gradientUnits="userSpaceOnUse">
<stop stop-color="#956FA4"/>
<stop offset="1" stop-color="#3A2D40"/>
</linearGradient>
<linearGradient id="paint3_linear_91_249" x1="92.8799" y1="24.3472" x2="92.8799" y2="117.227" gradientUnits="userSpaceOnUse">
<stop stop-color="#956FA4"/>
<stop offset="1" stop-color="#3A2D40"/>
</linearGradient>
<linearGradient id="paint4_linear_91_249" x1="92.8799" y1="32.4629" x2="92.8799" y2="125.343" gradientUnits="userSpaceOnUse">
<stop stop-color="#956FA4"/>
<stop offset="1" stop-color="#3A2D40"/>
</linearGradient>
<linearGradient id="paint5_linear_91_249" x1="92.8799" y1="40.5786" x2="92.8799" y2="133.459" gradientUnits="userSpaceOnUse">
<stop stop-color="#956FA4"/>
<stop offset="1" stop-color="#3A2D40"/>
</linearGradient>
<linearGradient id="paint6_linear_91_249" x1="92.8799" y1="48.6943" x2="92.8799" y2="141.574" gradientUnits="userSpaceOnUse">
<stop stop-color="#956FA4"/>
<stop offset="1" stop-color="#3A2D40"/>
</linearGradient>
<linearGradient id="paint7_linear_91_249" x1="92.8799" y1="56.8101" x2="92.8799" y2="149.69" gradientUnits="userSpaceOnUse">
<stop stop-color="#956FA4"/>
<stop offset="1" stop-color="#3A2D40"/>
</linearGradient>
<linearGradient id="paint8_linear_91_249" x1="92.8799" y1="64.9258" x2="92.8799" y2="157.806" gradientUnits="userSpaceOnUse">
<stop stop-color="#956FA4"/>
<stop offset="1" stop-color="#3A2D40"/>
</linearGradient>
<linearGradient id="paint9_linear_91_249" x1="92.8799" y1="73.0415" x2="92.8799" y2="165.921" gradientUnits="userSpaceOnUse">
<stop stop-color="#956FA4"/>
<stop offset="1" stop-color="#3A2D40"/>
</linearGradient>
<linearGradient id="paint10_linear_91_249" x1="92.8799" y1="81.1572" x2="92.8799" y2="174.037" gradientUnits="userSpaceOnUse">
<stop stop-color="#956FA4"/>
<stop offset="1" stop-color="#3A2D40"/>
</linearGradient>
<linearGradient id="paint11_linear_91_249" x1="92.8799" y1="89.2729" x2="92.8799" y2="182.153" gradientUnits="userSpaceOnUse">
<stop stop-color="#956FA4"/>
<stop offset="1" stop-color="#3A2D40"/>
</linearGradient>
<linearGradient id="paint12_linear_91_249" x1="92.8799" y1="97.3886" x2="92.8799" y2="190.269" gradientUnits="userSpaceOnUse">
<stop stop-color="#956FA4"/>
<stop offset="1" stop-color="#3A2D40"/>
</linearGradient>
<linearGradient id="paint13_linear_91_249" x1="92.8799" y1="105.504" x2="92.8799" y2="198.384" gradientUnits="userSpaceOnUse">
<stop stop-color="#956FA4"/>
<stop offset="1" stop-color="#3A2D40"/>
</linearGradient>
<linearGradient id="paint14_linear_91_249" x1="92.8799" y1="113.62" x2="92.8799" y2="206.5" gradientUnits="userSpaceOnUse">
<stop stop-color="#956FA4"/>
<stop offset="1" stop-color="#3A2D40"/>
</linearGradient>
</defs>
</svg>
